<svg xmlns="http://www.w3.org/2000/svg" width="375" viewBox="0 0 375 375" height="375" version="1.0"><defs><clipPath id="a"><path d="M 21.027344 22.132812 L 371.277344 22.132812 L 371.277344 372.382812 L 21.027344 372.382812 Z M 21.027344 22.132812"/></clipPath><clipPath id="b"><path d="M 14.792969 2.292969 L 365.042969 2.292969 L 365.042969 352.542969 L 14.792969 352.542969 Z M 14.792969 2.292969"/></clipPath><clipPath id="c"><path d="M 3.398438 15.332031 L 353.648438 15.332031 L 353.648438 365.582031 L 3.398438 365.582031 Z M 3.398438 15.332031"/></clipPath><clipPath id="d"><path d="M 9.191406 13.398438 L 359.441406 13.398438 L 359.441406 363.648438 L 9.191406 363.648438 Z M 9.191406 13.398438"/></clipPath><clipPath id="e"><path d="M 115.382812 88.746094 L 264.699219 88.746094 L 264.699219 288.496094 L 115.382812 288.496094 Z M 115.382812 88.746094"/></clipPath><clipPath id="f"><path d="M 153.667969 203.722656 L 169.148438 203.722656 L 169.148438 219.203125 L 153.667969 219.203125 Z M 153.667969 203.722656"/></clipPath><clipPath id="g"><path d="M 177.507812 249.734375 L 188.996094 249.734375 L 188.996094 261.222656 L 177.507812 261.222656 Z M 177.507812 249.734375"/></clipPath><clipPath id="h"><path d="M 169.125 176.910156 L 186.105469 176.910156 L 186.105469 193.886719 L 169.125 193.886719 Z M 169.125 176.910156"/></clipPath><clipPath id="i"><path d="M 195.609375 198.546875 L 210.089844 198.546875 L 210.089844 213.03125 L 195.609375 213.03125 Z M 195.609375 198.546875"/></clipPath><clipPath id="j"><path d="M 187.046875 222.507812 L 195.539062 222.507812 L 195.539062 230.996094 L 187.046875 230.996094 Z M 187.046875 222.507812"/></clipPath></defs><g clip-path="url(#a)"><path fill="#8C52FF" d="M 196.152344 39.644531 C 283.066406 39.644531 353.765625 110.34375 353.765625 197.257812 C 353.765625 284.171875 283.066406 354.871094 196.152344 354.871094 C 109.238281 354.871094 38.542969 284.171875 38.542969 197.257812 C 38.542969 110.34375 109.238281 39.644531 196.152344 39.644531 M 196.152344 22.132812 C 99.433594 22.132812 21.027344 100.539062 21.027344 197.257812 C 21.027344 293.980469 99.433594 372.382812 196.152344 372.382812 C 292.875 372.382812 371.277344 293.980469 371.277344 197.257812 C 371.277344 100.539062 292.875 22.132812 196.152344 22.132812 Z M 196.152344 22.132812"/></g><g clip-path="url(#b)"><path fill="#5CE1E6" d="M 189.917969 19.804688 C 276.832031 19.804688 347.53125 90.503906 347.53125 177.417969 C 347.53125 264.332031 276.832031 335.03125 189.917969 335.03125 C 103.003906 335.03125 32.304688 264.332031 32.304688 177.417969 C 32.304688 90.503906 103.003906 19.804688 189.917969 19.804688 M 189.917969 2.292969 C 93.195312 2.292969 14.792969 80.695312 14.792969 177.417969 C 14.792969 274.140625 93.195312 352.542969 189.917969 352.542969 C 286.640625 352.542969 365.042969 274.140625 365.042969 177.417969 C 365.042969 80.695312 286.640625 2.292969 189.917969 2.292969 Z M 189.917969 2.292969"/></g><g clip-path="url(#c)"><path fill="#FFC107" d="M 178.523438 32.84375 C 265.4375 32.84375 336.136719 103.539062 336.136719 190.457031 C 336.136719 277.371094 265.4375 348.066406 178.523438 348.066406 C 91.609375 348.066406 20.910156 277.371094 20.910156 190.457031 C 20.910156 103.539062 91.609375 32.84375 178.523438 32.84375 M 178.523438 15.332031 C 81.800781 15.332031 3.398438 93.734375 3.398438 190.457031 C 3.398438 287.175781 81.800781 365.582031 178.523438 365.582031 C 275.246094 365.582031 353.648438 287.175781 353.648438 190.457031 C 353.648438 93.734375 275.246094 15.332031 178.523438 15.332031 Z M 178.523438 15.332031"/></g><g clip-path="url(#d)"><path fill="#FFF" d="M 184.316406 30.910156 C 271.230469 30.910156 341.929688 101.609375 341.929688 188.523438 C 341.929688 275.4375 271.230469 346.136719 184.316406 346.136719 C 97.402344 346.136719 26.703125 275.4375 26.703125 188.523438 C 26.703125 101.609375 97.402344 30.910156 184.316406 30.910156 M 184.316406 13.398438 C 87.597656 13.398438 9.191406 91.800781 9.191406 188.523438 C 9.191406 285.246094 87.597656 363.648438 184.316406 363.648438 C 281.039062 363.648438 359.441406 285.246094 359.441406 188.523438 C 359.441406 91.800781 281.039062 13.398438 184.316406 13.398438 Z M 184.316406 13.398438"/></g><g clip-path="url(#e)"><path fill="#FF5757" d="M 264.621094 91.164062 C 264.246094 89.519531 262.609375 88.488281 260.960938 88.863281 L 220.703125 98.03125 C 219.5625 98.292969 218.671875 99.179688 218.40625 100.316406 L 211.980469 127.9375 L 119.96875 127.9375 C 118.585938 127.9375 117.277344 128.5625 116.40625 129.636719 C 115.535156 130.710938 115.195312 132.121094 115.484375 133.472656 L 147.574219 284.820312 C 148.023438 286.9375 149.894531 288.453125 152.0625 288.453125 L 213.1875 288.453125 C 215.351562 288.453125 217.222656 286.9375 217.671875 284.820312 L 249.761719 133.472656 C 250.050781 132.121094 249.710938 130.710938 248.839844 129.636719 C 247.96875 128.5625 246.660156 127.9375 245.277344 127.9375 L 218.253906 127.9375 L 223.925781 103.566406 L 262.320312 94.824219 C 263.964844 94.449219 264.996094 92.808594 264.621094 91.164062 Z M 239.621094 137.109375 L 209.472656 279.285156 L 155.773438 279.285156 L 125.628906 137.109375 L 209.847656 137.109375 L 201.351562 173.609375 L 143.867188 173.609375 C 142.945312 173.609375 142.070312 174.027344 141.492188 174.742188 C 140.910156 175.457031 140.683594 176.398438 140.875 177.300781 L 160.730469 270.921875 C 161.027344 272.332031 162.273438 273.34375 163.71875 273.34375 L 201.527344 273.34375 C 202.972656 273.34375 204.21875 272.335938 204.519531 270.921875 L 224.351562 177.398438 C 224.410156 177.164062 224.441406 176.917969 224.441406 176.667969 C 224.441406 174.976562 223.074219 173.609375 221.382812 173.609375 L 207.628906 173.609375 L 216.121094 137.109375 Z M 239.621094 137.109375"/></g><g clip-path="url(#f)"><path fill="#FFF" d="M 169.148438 211.460938 C 169.148438 211.96875 169.101562 212.472656 169 212.972656 C 168.902344 213.46875 168.753906 213.953125 168.5625 214.421875 C 168.367188 214.894531 168.128906 215.339844 167.847656 215.761719 C 167.5625 216.183594 167.242188 216.574219 166.882812 216.933594 C 166.523438 217.292969 166.132812 217.613281 165.710938 217.898438 C 165.289062 218.179688 164.839844 218.417969 164.371094 218.613281 C 163.902344 218.808594 163.417969 218.953125 162.921875 219.054688 C 162.421875 219.152344 161.917969 219.203125 161.410156 219.203125 C 160.902344 219.203125 160.398438 219.152344 159.898438 219.054688 C 159.402344 218.953125 158.917969 218.808594 158.449219 218.613281 C 157.976562 218.417969 157.53125 218.179688 157.109375 217.898438 C 156.6875 217.613281 156.296875 217.292969 155.9375 216.933594 C 155.578125 216.574219 155.257812 216.183594 154.972656 215.761719 C 154.691406 215.339844 154.453125 214.894531 154.257812 214.421875 C 154.0625 213.953125 153.917969 213.46875 153.816406 212.972656 C 153.71875 212.472656 153.667969 211.96875 153.667969 211.460938 C 153.667969 210.953125 153.71875 210.449219 153.816406 209.949219 C 153.917969 209.453125 154.0625 208.96875 154.257812 208.5 C 154.453125 208.03125 154.691406 207.582031 154.972656 207.160156 C 155.257812 206.738281 155.578125 206.347656 155.9375 205.988281 C 156.296875 205.628906 156.6875 205.308594 157.109375 205.023438 C 157.53125 204.742188 157.976562 204.503906 158.449219 204.308594 C 158.917969 204.117188 159.402344 203.96875 159.898438 203.871094 C 160.398438 203.769531 160.902344 203.722656 161.410156 203.722656 C 161.917969 203.722656 162.421875 203.769531 162.921875 203.871094 C 163.417969 203.96875 163.902344 204.117188 164.371094 204.308594 C 164.839844 204.503906 165.289062 204.742188 165.710938 205.023438 C 166.132812 205.308594 166.523438 205.628906 166.882812 205.988281 C 167.242188 206.347656 167.5625 206.738281 167.847656 207.160156 C 168.128906 207.582031 168.367188 208.03125 168.5625 208.5 C 168.753906 208.96875 168.902344 209.453125 169 209.949219 C 169.101562 210.449219 169.148438 210.953125 169.148438 211.460938 Z M 169.148438 211.460938"/></g><g clip-path="url(#g)"><path fill="#FFF" d="M 188.996094 255.476562 C 188.996094 255.855469 188.957031 256.226562 188.882812 256.597656 C 188.8125 256.96875 188.703125 257.328125 188.558594 257.675781 C 188.414062 258.023438 188.238281 258.355469 188.027344 258.667969 C 187.816406 258.980469 187.578125 259.273438 187.3125 259.539062 C 187.046875 259.804688 186.757812 260.042969 186.441406 260.253906 C 186.128906 260.460938 185.796875 260.640625 185.449219 260.785156 C 185.101562 260.929688 184.742188 261.035156 184.371094 261.109375 C 184.003906 261.183594 183.628906 261.222656 183.25 261.222656 C 182.875 261.222656 182.5 261.183594 182.132812 261.109375 C 181.761719 261.035156 181.402344 260.929688 181.054688 260.785156 C 180.707031 260.640625 180.375 260.460938 180.0625 260.253906 C 179.746094 260.042969 179.457031 259.804688 179.191406 259.539062 C 178.925781 259.273438 178.6875 258.980469 178.476562 258.667969 C 178.265625 258.355469 178.089844 258.023438 177.945312 257.675781 C 177.800781 257.328125 177.691406 256.96875 177.621094 256.597656 C 177.546875 256.226562 177.507812 255.855469 177.507812 255.476562 C 177.507812 255.101562 177.546875 254.726562 177.621094 254.359375 C 177.691406 253.988281 177.800781 253.628906 177.945312 253.28125 C 178.089844 252.933594 178.265625 252.601562 178.476562 252.289062 C 178.6875 251.972656 178.925781 251.683594 179.191406 251.417969 C 179.457031 251.152344 179.746094 250.914062 180.0625 250.703125 C 180.375 250.492188 180.707031 250.316406 181.054688 250.171875 C 181.402344 250.027344 181.761719 249.917969 182.132812 249.84375 C 182.5 249.773438 182.875 249.734375 183.25 249.734375 C 183.628906 249.734375 184.003906 249.773438 184.371094 249.84375 C 184.742188 249.917969 185.101562 250.027344 185.449219 250.171875 C 185.796875 250.316406 186.128906 250.492188 186.441406 250.703125 C 186.757812 250.914062 187.046875 251.152344 187.3125 251.417969 C 187.578125 251.683594 187.816406 251.972656 188.027344 252.289062 C 188.238281 252.601562 188.414062 252.933594 188.558594 253.28125 C 188.703125 253.628906 188.8125 253.988281 188.882812 254.359375 C 188.957031 254.726562 188.996094 255.101562 188.996094 255.476562 Z M 188.996094 255.476562"/></g><g clip-path="url(#h)"><path fill="#FFF" d="M 186.105469 185.398438 C 186.105469 185.957031 186.050781 186.507812 185.941406 187.054688 C 185.832031 187.601562 185.671875 188.132812 185.460938 188.648438 C 185.246094 189.160156 184.984375 189.652344 184.675781 190.113281 C 184.363281 190.578125 184.011719 191.007812 183.617188 191.402344 C 183.226562 191.796875 182.796875 192.148438 182.332031 192.457031 C 181.867188 192.765625 181.378906 193.027344 180.863281 193.242188 C 180.351562 193.453125 179.820312 193.617188 179.273438 193.726562 C 178.726562 193.832031 178.171875 193.886719 177.617188 193.886719 C 177.058594 193.886719 176.507812 193.832031 175.960938 193.726562 C 175.414062 193.617188 174.882812 193.453125 174.367188 193.242188 C 173.851562 193.027344 173.363281 192.765625 172.898438 192.457031 C 172.4375 192.148438 172.007812 191.796875 171.613281 191.402344 C 171.21875 191.007812 170.867188 190.578125 170.558594 190.113281 C 170.246094 189.652344 169.984375 189.160156 169.773438 188.648438 C 169.558594 188.132812 169.398438 187.601562 169.289062 187.054688 C 169.179688 186.507812 169.125 185.957031 169.125 185.398438 C 169.125 184.839844 169.179688 184.289062 169.289062 183.742188 C 169.398438 183.195312 169.558594 182.664062 169.773438 182.148438 C 169.984375 181.632812 170.246094 181.144531 170.558594 180.683594 C 170.867188 180.21875 171.21875 179.789062 171.613281 179.394531 C 172.007812 179 172.4375 178.648438 172.898438 178.339844 C 173.363281 178.03125 173.851562 177.769531 174.367188 177.554688 C 174.882812 177.339844 175.414062 177.179688 175.960938 177.070312 C 176.507812 176.964844 177.058594 176.910156 177.617188 176.910156 C 178.171875 176.910156 178.726562 176.964844 179.273438 177.070312 C 179.820312 177.179688 180.351562 177.339844 180.863281 177.554688 C 181.378906 177.769531 181.867188 178.03125 182.332031 178.339844 C 182.796875 178.648438 183.226562 179 183.617188 179.394531 C 184.011719 179.789062 184.363281 180.21875 184.675781 180.683594 C 184.984375 181.144531 185.246094 181.632812 185.460938 182.148438 C 185.671875 182.664062 185.832031 183.195312 185.941406 183.742188 C 186.050781 184.289062 186.105469 184.839844 186.105469 185.398438 Z M 186.105469 185.398438"/></g><g clip-path="url(#i)"><path fill="#FFF" d="M 210.089844 205.789062 C 210.089844 206.265625 210.046875 206.734375 209.953125 207.203125 C 209.859375 207.667969 209.722656 208.121094 209.539062 208.5625 C 209.359375 209 209.136719 209.417969 208.871094 209.8125 C 208.605469 210.207031 208.308594 210.574219 207.96875 210.910156 C 207.632812 211.246094 207.269531 211.546875 206.875 211.808594 C 206.476562 212.074219 206.0625 212.296875 205.621094 212.480469 C 205.183594 212.660156 204.730469 212.796875 204.261719 212.890625 C 203.796875 212.984375 203.324219 213.03125 202.851562 213.03125 C 202.375 213.03125 201.902344 212.984375 201.4375 212.890625 C 200.972656 212.796875 200.519531 212.660156 200.078125 212.480469 C 199.640625 212.296875 199.222656 212.074219 198.828125 211.808594 C 198.433594 211.546875 198.066406 211.246094 197.730469 210.910156 C 197.394531 210.574219 197.09375 210.207031 196.828125 209.8125 C 196.566406 209.417969 196.34375 209 196.160156 208.5625 C 195.980469 208.121094 195.839844 207.667969 195.75 207.203125 C 195.65625 206.734375 195.609375 206.265625 195.609375 205.789062 C 195.609375 205.3125 195.65625 204.84375 195.75 204.378906 C 195.839844 203.910156 195.980469 203.457031 196.160156 203.019531 C 196.34375 202.578125 196.566406 202.160156 196.828125 201.765625 C 197.09375 201.371094 197.394531 201.003906 197.730469 200.667969 C 198.066406 200.332031 198.433594 200.03125 198.828125 199.769531 C 199.222656 199.503906 199.640625 199.28125 200.078125 199.101562 C 200.519531 198.917969 200.972656 198.78125 201.4375 198.6875 C 201.902344 198.59375 202.375 198.546875 202.851562 198.546875 C 203.324219 198.546875 203.796875 198.59375 204.261719 198.6875 C 204.730469 198.78125 205.183594 198.917969 205.621094 199.101562 C 206.0625 199.28125 206.476562 199.503906 206.875 199.769531 C 207.269531 200.03125 207.632812 200.332031 207.96875 200.667969 C 208.308594 201.003906 208.605469 201.371094 208.871094 201.765625 C 209.136719 202.160156 209.359375 202.578125 209.539062 203.019531 C 209.722656 203.457031 209.859375 203.910156 209.953125 204.378906 C 210.046875 204.84375 210.089844 205.3125 210.089844 205.789062 Z M 210.089844 205.789062"/></g><g clip-path="url(#j)"><path fill="#FFF" d="M 195.539062 226.75 C 195.539062 227.03125 195.511719 227.304688 195.457031 227.578125 C 195.402344 227.851562 195.320312 228.117188 195.214844 228.375 C 195.109375 228.632812 194.976562 228.878906 194.824219 229.109375 C 194.667969 229.339844 194.492188 229.554688 194.292969 229.753906 C 194.097656 229.949219 193.882812 230.125 193.652344 230.28125 C 193.417969 230.4375 193.175781 230.566406 192.917969 230.671875 C 192.660156 230.78125 192.394531 230.859375 192.121094 230.914062 C 191.847656 230.96875 191.570312 230.996094 191.292969 230.996094 C 191.015625 230.996094 190.738281 230.96875 190.464844 230.914062 C 190.191406 230.859375 189.925781 230.78125 189.667969 230.671875 C 189.410156 230.566406 189.167969 230.4375 188.933594 230.28125 C 188.703125 230.125 188.488281 229.949219 188.292969 229.753906 C 188.09375 229.554688 187.917969 229.339844 187.765625 229.109375 C 187.609375 228.878906 187.476562 228.632812 187.371094 228.375 C 187.265625 228.117188 187.183594 227.851562 187.128906 227.578125 C 187.074219 227.304688 187.046875 227.03125 187.046875 226.75 C 187.046875 226.472656 187.074219 226.195312 187.128906 225.921875 C 187.183594 225.648438 187.265625 225.386719 187.371094 225.128906 C 187.476562 224.871094 187.609375 224.625 187.765625 224.394531 C 187.917969 224.160156 188.09375 223.949219 188.292969 223.75 C 188.488281 223.554688 188.703125 223.378906 188.933594 223.222656 C 189.167969 223.066406 189.410156 222.9375 189.667969 222.828125 C 189.925781 222.722656 190.191406 222.644531 190.464844 222.589844 C 190.738281 222.535156 191.015625 222.507812 191.292969 222.507812 C 191.570312 222.507812 191.847656 222.535156 192.121094 222.589844 C 192.394531 222.644531 192.660156 222.722656 192.917969 222.828125 C 193.175781 222.9375 193.417969 223.066406 193.652344 223.222656 C 193.882812 223.378906 194.097656 223.554688 194.292969 223.75 C 194.492188 223.949219 194.667969 224.160156 194.824219 224.394531 C 194.976562 224.625 195.109375 224.871094 195.214844 225.128906 C 195.320312 225.386719 195.402344 225.648438 195.457031 225.921875 C 195.511719 226.195312 195.539062 226.472656 195.539062 226.75 Z M 195.539062 226.75"/></g></svg>